# xmcd
#
# Track frame offsets:
#	150
#	12953
#	30281
#	48039
#	59809
#	68790
#	82952
#	96916
#	109093
#	121536
#	139473
#	148647
#	164501
#
# Disc length: 2368 seconds
#
# Revision: 1
# Processed by: cddbd v1.5.1PL0 Copyright (c) Steve Scherf et al.
# Submitted via: audiograbber 1.82.02
#
DISCID=ab093e0d
DTITLE=Jim and Jennie and The Pinetops - Rivers Roll On By
DYEAR=2005
DGENRE=Country
TTITLE0=Country Boy Rock and Roll
TTITLE1=Mt. St. Helens
TTITLE2=Blackie Moore
TTITLE3=Red Rocking Chair
TTITLE4=Katy Hill
TTITLE5=Quit Barking at Me
TTITLE6=The Poison Vine
TTITLE7=The Way It Is for Me
TTITLE8=Cold Green Sea
TTITLE9=Hannah's Song
TTITLE10=I Know You're Married But I Love You Still
TTITLE11=Walking in My Sleep
TTITLE12=Stars Fall
EXTD=
EXTT0=
EXTT1=
EXTT2=
EXTT3=
EXTT4=
EXTT5=
EXTT6=
EXTT7=
EXTT8=
EXTT9=
EXTT10=
EXTT11=
EXTT12=
PLAYORDER=
